<mxfile host="app.diagrams.net" modified="2022-01-21T02:29:18.271Z" agent="5.0 (Macintosh; Intel Mac OS X 10_15_7) AppleWebKit/537.36 (KHTML, like Gecko) Chrome/97.0.4692.71 Safari/537.36" etag="i0MXUQmuGQm9SJQw62tj" version="16.2.7" type="github">
  <diagram id="C748W4DmN_CWpJFPEh3k" name="Page-1">
    <mxGraphModel dx="1351" dy="841" grid="0" gridSize="10" guides="0" tooltips="1" connect="1" arrows="1" fold="1" page="1" pageScale="1" pageWidth="1200" pageHeight="1920" background="none" math="0" shadow="0">
      <root>
        <mxCell id="0" />
        <mxCell id="1" parent="0" />
        <mxCell id="Qa0UBKW9RN8390FDyN4J-1" value="&lt;font style=&quot;font-size: 18px&quot;&gt;App&lt;/font&gt;" style="text;html=1;align=center;verticalAlign=middle;resizable=0;points=[];autosize=1;strokeColor=none;fillColor=none;" vertex="1" parent="1">
          <mxGeometry x="71" y="77" width="42" height="20" as="geometry" />
        </mxCell>
        <mxCell id="Qa0UBKW9RN8390FDyN4J-2" value="&lt;font style=&quot;font-size: 14px&quot;&gt;Portal(门户)&lt;/font&gt;" style="rounded=0;whiteSpace=wrap;html=1;fontSize=24;" vertex="1" parent="1">
          <mxGeometry x="270" y="68.25" width="640" height="37.5" as="geometry" />
        </mxCell>
        <mxCell id="Qa0UBKW9RN8390FDyN4J-11" value="&lt;font style=&quot;font-size: 18px&quot;&gt;Components&lt;/font&gt;" style="text;html=1;align=center;verticalAlign=middle;resizable=0;points=[];autosize=1;strokeColor=none;fillColor=none;" vertex="1" parent="1">
          <mxGeometry x="71" y="210" width="112" height="20" as="geometry" />
        </mxCell>
        <mxCell id="Qa0UBKW9RN8390FDyN4J-13" value="" style="rounded=0;whiteSpace=wrap;html=1;fontSize=14;dashed=1;" vertex="1" parent="1">
          <mxGeometry x="262" y="166" width="111" height="96" as="geometry" />
        </mxCell>
        <mxCell id="Qa0UBKW9RN8390FDyN4J-14" value="Login" style="text;html=1;align=center;verticalAlign=middle;resizable=0;points=[];autosize=1;strokeColor=none;fillColor=none;fontSize=14;" vertex="1" parent="1">
          <mxGeometry x="297" y="174" width="44" height="21" as="geometry" />
        </mxCell>
        <mxCell id="Qa0UBKW9RN8390FDyN4J-15" value="Login" style="rounded=0;whiteSpace=wrap;html=1;fontSize=14;" vertex="1" parent="1">
          <mxGeometry x="280" y="203" width="76" height="24" as="geometry" />
        </mxCell>
        <mxCell id="Qa0UBKW9RN8390FDyN4J-16" value="Account" style="rounded=0;whiteSpace=wrap;html=1;fontSize=14;" vertex="1" parent="1">
          <mxGeometry x="280" y="233" width="76" height="24" as="geometry" />
        </mxCell>
        <mxCell id="Qa0UBKW9RN8390FDyN4J-17" value="" style="rounded=0;whiteSpace=wrap;html=1;fontSize=14;dashed=1;" vertex="1" parent="1">
          <mxGeometry x="396" y="166" width="111" height="96" as="geometry" />
        </mxCell>
        <mxCell id="Qa0UBKW9RN8390FDyN4J-18" value="Xtgl" style="text;html=1;align=center;verticalAlign=middle;resizable=0;points=[];autosize=1;strokeColor=none;fillColor=none;fontSize=14;" vertex="1" parent="1">
          <mxGeometry x="436" y="174" width="34" height="21" as="geometry" />
        </mxCell>
        <mxCell id="Qa0UBKW9RN8390FDyN4J-19" value="Office" style="rounded=0;whiteSpace=wrap;html=1;fontSize=14;" vertex="1" parent="1">
          <mxGeometry x="414" y="203" width="76" height="24" as="geometry" />
        </mxCell>
        <mxCell id="Qa0UBKW9RN8390FDyN4J-20" value="Dict" style="rounded=0;whiteSpace=wrap;html=1;fontSize=14;" vertex="1" parent="1">
          <mxGeometry x="414" y="233" width="76" height="24" as="geometry" />
        </mxCell>
        <mxCell id="Qa0UBKW9RN8390FDyN4J-21" value="" style="rounded=0;whiteSpace=wrap;html=1;fontSize=14;dashed=1;" vertex="1" parent="1">
          <mxGeometry x="526" y="165" width="111" height="96" as="geometry" />
        </mxCell>
        <mxCell id="Qa0UBKW9RN8390FDyN4J-22" value="Hczz" style="text;html=1;align=center;verticalAlign=middle;resizable=0;points=[];autosize=1;strokeColor=none;fillColor=none;fontSize=14;" vertex="1" parent="1">
          <mxGeometry x="563" y="173" width="41" height="21" as="geometry" />
        </mxCell>
        <mxCell id="Qa0UBKW9RN8390FDyN4J-27" value="" style="rounded=0;whiteSpace=wrap;html=1;fontSize=14;dashed=1;" vertex="1" parent="1">
          <mxGeometry x="654" y="163" width="82" height="98" as="geometry" />
        </mxCell>
        <mxCell id="Qa0UBKW9RN8390FDyN4J-28" value="Ajjq" style="text;html=1;align=center;verticalAlign=middle;resizable=0;points=[];autosize=1;strokeColor=none;fillColor=none;fontSize=14;" vertex="1" parent="1">
          <mxGeometry x="677" y="176" width="33" height="21" as="geometry" />
        </mxCell>
        <mxCell id="Qa0UBKW9RN8390FDyN4J-36" value="" style="rounded=0;whiteSpace=wrap;html=1;fontSize=14;dashed=1;" vertex="1" parent="1">
          <mxGeometry x="750" y="164" width="82" height="98" as="geometry" />
        </mxCell>
        <mxCell id="Qa0UBKW9RN8390FDyN4J-37" value="Ajjq" style="text;html=1;align=center;verticalAlign=middle;resizable=0;points=[];autosize=1;strokeColor=none;fillColor=none;fontSize=14;" vertex="1" parent="1">
          <mxGeometry x="773" y="175" width="33" height="21" as="geometry" />
        </mxCell>
        <mxCell id="Qa0UBKW9RN8390FDyN4J-38" value="" style="rounded=0;whiteSpace=wrap;html=1;fontSize=14;dashed=1;" vertex="1" parent="1">
          <mxGeometry x="845" y="162" width="82" height="98" as="geometry" />
        </mxCell>
        <mxCell id="Qa0UBKW9RN8390FDyN4J-39" value="Zdzx" style="text;html=1;align=center;verticalAlign=middle;resizable=0;points=[];autosize=1;strokeColor=none;fillColor=none;fontSize=14;" vertex="1" parent="1">
          <mxGeometry x="865" y="173" width="40" height="21" as="geometry" />
        </mxCell>
        <mxCell id="Qa0UBKW9RN8390FDyN4J-40" value="指令" style="rounded=0;whiteSpace=wrap;html=1;fontSize=14;" vertex="1" parent="1">
          <mxGeometry x="528" y="194" width="76" height="24" as="geometry" />
        </mxCell>
        <mxCell id="Qa0UBKW9RN8390FDyN4J-41" value="请求" style="rounded=0;whiteSpace=wrap;html=1;fontSize=14;" vertex="1" parent="1">
          <mxGeometry x="547" y="212" width="76" height="24" as="geometry" />
        </mxCell>
        <mxCell id="Qa0UBKW9RN8390FDyN4J-42" value="专班" style="rounded=0;whiteSpace=wrap;html=1;fontSize=14;" vertex="1" parent="1">
          <mxGeometry x="558" y="232" width="76" height="24" as="geometry" />
        </mxCell>
        <mxCell id="Qa0UBKW9RN8390FDyN4J-45" value="&lt;font style=&quot;font-size: 18px&quot;&gt;UI&lt;/font&gt;" style="text;html=1;align=center;verticalAlign=middle;resizable=0;points=[];autosize=1;strokeColor=none;fillColor=none;" vertex="1" parent="1">
          <mxGeometry x="71" y="342" width="28" height="20" as="geometry" />
        </mxCell>
        <mxCell id="Qa0UBKW9RN8390FDyN4J-53" value="&lt;font style=&quot;font-size: 14px&quot;&gt;Android Application Framework&lt;/font&gt;" style="rounded=0;whiteSpace=wrap;html=1;fontSize=24;" vertex="1" parent="1">
          <mxGeometry x="73" y="685" width="878" height="38" as="geometry" />
        </mxCell>
        <mxCell id="Qa0UBKW9RN8390FDyN4J-54" value="&lt;font style=&quot;font-size: 18px&quot;&gt;Vendors(三方服务)&lt;/font&gt;" style="text;html=1;align=center;verticalAlign=middle;resizable=0;points=[];autosize=1;strokeColor=none;fillColor=none;" vertex="1" parent="1">
          <mxGeometry x="71" y="607" width="160" height="20" as="geometry" />
        </mxCell>
        <mxCell id="Qa0UBKW9RN8390FDyN4J-61" value="&lt;font style=&quot;font-size: 18px&quot;&gt;Basics&lt;/font&gt;" style="text;html=1;align=center;verticalAlign=middle;resizable=0;points=[];autosize=1;strokeColor=none;fillColor=none;" vertex="1" parent="1">
          <mxGeometry x="71" y="475" width="63" height="20" as="geometry" />
        </mxCell>
        <mxCell id="Qa0UBKW9RN8390FDyN4J-68" value="" style="endArrow=none;html=1;rounded=0;fontSize=18;strokeColor=#999999;strokeWidth=2;fillColor=#FFFF33;" edge="1" parent="1">
          <mxGeometry width="50" height="50" relative="1" as="geometry">
            <mxPoint x="76" y="133" as="sourcePoint" />
            <mxPoint x="939" y="133" as="targetPoint" />
          </mxGeometry>
        </mxCell>
        <mxCell id="Qa0UBKW9RN8390FDyN4J-69" value="" style="endArrow=none;html=1;rounded=0;fontSize=18;strokeColor=#999999;strokeWidth=2;fillColor=#FFFF33;" edge="1" parent="1">
          <mxGeometry width="50" height="50" relative="1" as="geometry">
            <mxPoint x="75" y="293" as="sourcePoint" />
            <mxPoint x="938" y="293" as="targetPoint" />
          </mxGeometry>
        </mxCell>
        <mxCell id="Qa0UBKW9RN8390FDyN4J-70" value="" style="endArrow=none;html=1;rounded=0;fontSize=18;strokeColor=#999999;strokeWidth=2;fillColor=#FFFF33;" edge="1" parent="1">
          <mxGeometry width="50" height="50" relative="1" as="geometry">
            <mxPoint x="72" y="421" as="sourcePoint" />
            <mxPoint x="935" y="421" as="targetPoint" />
          </mxGeometry>
        </mxCell>
        <mxCell id="Qa0UBKW9RN8390FDyN4J-71" value="" style="endArrow=none;html=1;rounded=0;fontSize=18;strokeColor=#999999;strokeWidth=2;fillColor=#FFFF33;" edge="1" parent="1">
          <mxGeometry width="50" height="50" relative="1" as="geometry">
            <mxPoint x="69" y="555" as="sourcePoint" />
            <mxPoint x="932" y="555" as="targetPoint" />
          </mxGeometry>
        </mxCell>
        <mxCell id="Qa0UBKW9RN8390FDyN4J-72" value="" style="group" vertex="1" connectable="0" parent="1">
          <mxGeometry x="265" y="469" width="652" height="32" as="geometry" />
        </mxCell>
        <mxCell id="Qa0UBKW9RN8390FDyN4J-62" value="CORESTful" style="rounded=0;whiteSpace=wrap;html=1;fontSize=14;container=0;" vertex="1" parent="Qa0UBKW9RN8390FDyN4J-72">
          <mxGeometry width="106" height="32" as="geometry" />
        </mxCell>
        <mxCell id="Qa0UBKW9RN8390FDyN4J-63" value="COLog" style="rounded=0;whiteSpace=wrap;html=1;fontSize=14;container=0;" vertex="1" parent="Qa0UBKW9RN8390FDyN4J-72">
          <mxGeometry x="125" width="80" height="32" as="geometry" />
        </mxCell>
        <mxCell id="Qa0UBKW9RN8390FDyN4J-64" value="COUtil" style="rounded=0;whiteSpace=wrap;html=1;fontSize=14;container=0;" vertex="1" parent="Qa0UBKW9RN8390FDyN4J-72">
          <mxGeometry x="222" width="109" height="32" as="geometry" />
        </mxCell>
        <mxCell id="Qa0UBKW9RN8390FDyN4J-65" value="COStorage" style="rounded=0;whiteSpace=wrap;html=1;fontSize=14;container=0;" vertex="1" parent="Qa0UBKW9RN8390FDyN4J-72">
          <mxGeometry x="348" width="80" height="32" as="geometry" />
        </mxCell>
        <mxCell id="Qa0UBKW9RN8390FDyN4J-66" value="COExecutor" style="rounded=0;whiteSpace=wrap;html=1;fontSize=14;container=0;" vertex="1" parent="Qa0UBKW9RN8390FDyN4J-72">
          <mxGeometry x="440" width="120" height="32" as="geometry" />
        </mxCell>
        <mxCell id="Qa0UBKW9RN8390FDyN4J-67" value="..." style="rounded=0;whiteSpace=wrap;html=1;fontSize=14;container=0;" vertex="1" parent="Qa0UBKW9RN8390FDyN4J-72">
          <mxGeometry x="572" width="80" height="32" as="geometry" />
        </mxCell>
        <mxCell id="Qa0UBKW9RN8390FDyN4J-73" value="" style="group" vertex="1" connectable="0" parent="1">
          <mxGeometry x="265" y="599" width="652" height="32" as="geometry" />
        </mxCell>
        <mxCell id="Qa0UBKW9RN8390FDyN4J-55" value="Okhttp/Retrofit" style="rounded=0;whiteSpace=wrap;html=1;fontSize=14;container=0;" vertex="1" parent="Qa0UBKW9RN8390FDyN4J-73">
          <mxGeometry width="106" height="32" as="geometry" />
        </mxCell>
        <mxCell id="Qa0UBKW9RN8390FDyN4J-56" value="Glide" style="rounded=0;whiteSpace=wrap;html=1;fontSize=14;container=0;" vertex="1" parent="Qa0UBKW9RN8390FDyN4J-73">
          <mxGeometry x="125" width="80" height="32" as="geometry" />
        </mxCell>
        <mxCell id="Qa0UBKW9RN8390FDyN4J-57" value="Flutter" style="rounded=0;whiteSpace=wrap;html=1;fontSize=14;container=0;" vertex="1" parent="Qa0UBKW9RN8390FDyN4J-73">
          <mxGeometry x="222" width="109" height="32" as="geometry" />
        </mxCell>
        <mxCell id="Qa0UBKW9RN8390FDyN4J-58" value="Arouter" style="rounded=0;whiteSpace=wrap;html=1;fontSize=14;container=0;" vertex="1" parent="Qa0UBKW9RN8390FDyN4J-73">
          <mxGeometry x="348" width="80" height="32" as="geometry" />
        </mxCell>
        <mxCell id="Qa0UBKW9RN8390FDyN4J-59" value="Jetpack" style="rounded=0;whiteSpace=wrap;html=1;fontSize=14;container=0;" vertex="1" parent="Qa0UBKW9RN8390FDyN4J-73">
          <mxGeometry x="440" width="120" height="32" as="geometry" />
        </mxCell>
        <mxCell id="Qa0UBKW9RN8390FDyN4J-60" value="..." style="rounded=0;whiteSpace=wrap;html=1;fontSize=14;container=0;" vertex="1" parent="Qa0UBKW9RN8390FDyN4J-73">
          <mxGeometry x="572" width="80" height="32" as="geometry" />
        </mxCell>
        <mxCell id="Qa0UBKW9RN8390FDyN4J-74" value="" style="group" vertex="1" connectable="0" parent="1">
          <mxGeometry x="266" y="336" width="652" height="32" as="geometry" />
        </mxCell>
        <mxCell id="Qa0UBKW9RN8390FDyN4J-46" value="CORefresh" style="rounded=0;whiteSpace=wrap;html=1;fontSize=14;container=0;" vertex="1" parent="Qa0UBKW9RN8390FDyN4J-74">
          <mxGeometry width="80" height="32" as="geometry" />
        </mxCell>
        <mxCell id="Qa0UBKW9RN8390FDyN4J-47" value="COBanner" style="rounded=0;whiteSpace=wrap;html=1;fontSize=14;container=0;" vertex="1" parent="Qa0UBKW9RN8390FDyN4J-74">
          <mxGeometry x="100" width="80" height="32" as="geometry" />
        </mxCell>
        <mxCell id="Qa0UBKW9RN8390FDyN4J-48" value="CORecyclerView" style="rounded=0;whiteSpace=wrap;html=1;fontSize=14;container=0;" vertex="1" parent="Qa0UBKW9RN8390FDyN4J-74">
          <mxGeometry x="201" width="109" height="32" as="geometry" />
        </mxCell>
        <mxCell id="Qa0UBKW9RN8390FDyN4J-49" value="COTab" style="rounded=0;whiteSpace=wrap;html=1;fontSize=14;container=0;" vertex="1" parent="Qa0UBKW9RN8390FDyN4J-74">
          <mxGeometry x="332" width="80" height="32" as="geometry" />
        </mxCell>
        <mxCell id="Qa0UBKW9RN8390FDyN4J-50" value="CONavigationBar" style="rounded=0;whiteSpace=wrap;html=1;fontSize=14;container=0;" vertex="1" parent="Qa0UBKW9RN8390FDyN4J-74">
          <mxGeometry x="433" width="120" height="32" as="geometry" />
        </mxCell>
        <mxCell id="Qa0UBKW9RN8390FDyN4J-51" value="..." style="rounded=0;whiteSpace=wrap;html=1;fontSize=14;container=0;" vertex="1" parent="Qa0UBKW9RN8390FDyN4J-74">
          <mxGeometry x="572" width="80" height="32" as="geometry" />
        </mxCell>
      </root>
    </mxGraphModel>
  </diagram>
</mxfile>
